<svg xmlns="http://www.w3.org/2000/svg" version="1.1" xmlns:xlink="http://www.w3.org/1999/xlink" xmlns:svgjs="http://svgjs.dev/svgjs" width="1000" height="1000" viewBox="0 0 1000 1000"><rect width="1000" height="1000" fill="#ffffff"></rect><g transform="matrix(0.7,0,0,0.7,149.57575757575756,429.56678059300776)"><svg viewBox="0 0 396 80" data-background-color="#ffffff" preserveAspectRatio="xMidYMid meet" height="202" width="1000" xmlns="http://www.w3.org/2000/svg" xmlns:xlink="http://www.w3.org/1999/xlink"><g id="tight-bounds" transform="matrix(1,0,0,1,0.2400000000000091,-0.1509366862844388)"><svg viewBox="0 0 395.52 80.30187337256888" height="80.30187337256888" width="395.52"><g><svg viewBox="0 0 518.857894480039 105.3429938837323" height="80.30187337256888" width="395.52"><g transform="matrix(1,0,0,1,0,14.558981064973139)"><svg viewBox="0 0 395.52 76.22503175378603" height="76.22503175378603" width="395.52"><g id="textblocktransform"><svg viewBox="0 0 395.52 76.22503175378603" height="76.22503175378603" width="395.52" id="textblock"><g><svg viewBox="0 0 395.52 76.22503175378603" height="76.22503175378603" width="395.52"><g transform="matrix(1,0,0,1,0,0)"><svg width="395.52" viewBox="2 -38.599998474121094 204.69000244140625 39.44999694824219" height="76.22503175378603" data-palette-color="#8dbdff"><path d="M30.7-37.9L30.7-31.85 19.8-31.85 19.8 0 12.9 0 12.9-31.85 2-31.85 2-37.9 30.7-37.9ZM63.05 0L59.7-9.35 44.45-9.35 41.1 0 34.1 0 47.85-38.35 56.25-38.35 70.05 0 63.05 0ZM46.6-15.4L57.55-15.4 52.05-30.8 46.6-15.4ZM98.09-19.25Q101.34-18.2 103.12-15.95 104.9-13.7 104.9-10.45L104.9-10.45Q104.9-5.2 101.62-2.6 98.34 0 90.65 0L90.65 0 76.15 0 76.15-37.9 90.65-37.9Q97.59-37.9 100.5-35.35 103.4-32.8 103.4-27.75L103.4-27.75Q103.4-24.7 102.12-22.58 100.84-20.45 98.09-19.25L98.09-19.25ZM83.09-32.3L83.09-21.8 90.65-21.8Q96.34-21.8 96.34-27.15L96.34-27.15Q96.34-29.9 95.05-31.1 93.75-32.3 90.65-32.3L90.65-32.3 83.09-32.3ZM97.84-10.95Q97.84-13.7 96.05-14.95 94.25-16.2 90.65-16.2L90.65-16.2 83.09-16.2 83.09-5.6 90.65-5.6Q94.59-5.6 96.22-6.88 97.84-8.15 97.84-10.95L97.84-10.95ZM124.24 0.85Q116.69 0.85 110.79-1.95L110.79-1.95 110.79-8.25Q116.84-5.1 124.24-5.1L124.24-5.1Q127.79-5.1 129.44-6.45 131.09-7.8 131.14-10.05L131.14-10.05Q131.14-12.25 129.62-13.35 128.09-14.45 124.79-15.35L124.79-15.35 121.39-16.3Q118.49-17.1 116.34-18.23 114.19-19.35 112.74-21.53 111.29-23.7 111.29-27.15L111.29-27.15Q111.29-32.75 114.64-35.68 117.99-38.6 124.09-38.6L124.09-38.6Q127.74-38.6 130.52-37.93 133.29-37.25 136.19-35.9L136.19-35.9 136.19-29.8Q130.74-32.65 124.09-32.65L124.09-32.65Q118.19-32.65 118.19-27.7L118.19-27.7Q118.24-25.5 119.57-24.45 120.89-23.4 124.14-22.55L124.14-22.55 127.59-21.6Q130.74-20.75 132.94-19.55 135.14-18.35 136.59-16.13 138.04-13.9 138.04-10.35L138.04-10.35Q137.99-5.15 134.32-2.15 130.64 0.85 124.24 0.85L124.24 0.85ZM152.29-5.7L169.64-5.7 169.64 0 145.34 0 145.34-37.9 169.39-37.9 169.39-32.2 152.29-32.2 152.29-21.9 166.89-21.9 166.89-16.2 152.29-16.2 152.29-5.7ZM198.94 0L190.04-14.85 184.24-14.85 184.24 0 177.29 0 177.29-37.9 191.64-37.9Q205.04-37.9 205.04-26.35L205.04-26.35Q205.04-22.05 203.04-19.3 201.04-16.55 197.09-15.5L197.09-15.5 206.69 0 198.94 0ZM184.24-31.95L184.24-20.8 191.64-20.8Q197.99-20.8 197.99-26.5L197.99-26.5Q197.99-29.35 196.41-30.65 194.84-31.95 191.64-31.95L191.64-31.95 184.24-31.95Z" opacity="1" transform="matrix(1,0,0,1,0,0)" fill="#000000" class="wordmark-text-0" data-fill-palette-color="primary" id="text-0"></path></svg></g></svg></g></svg></g></svg></g><g transform="matrix(1,0,0,1,413.5149005963068,0)"><svg viewBox="0 0 105.3429938837323 105.3429938837323" height="105.3429938837323" width="105.3429938837323"><g data-palette-color="#8dbdff"><rect width="28.7937516615535" height="105.3429938837323" fill="#000000" stroke="transparent" data-fill-palette-color="accent" x="0" fill-opacity="1"></rect><rect width="28.7937516615535" height="105.3429938837323" fill="#000000" stroke="transparent" data-fill-palette-color="accent" x="35.11433129457744" fill-opacity="0.75"></rect><rect width="28.7937516615535" height="105.3429938837323" fill="#000000" stroke="transparent" data-fill-palette-color="accent" x="70.22866258915488" fill-opacity="0.5"></rect></g></svg></g></svg></g><defs></defs></svg><rect width="395.52" height="80.30187337256888" fill="none" stroke="none" visibility="hidden"></rect></g></svg></g></svg>